<?xml version="1.0" encoding="UTF-8" standalone="no"?>
<!-- Created with Inkscape (http://www.inkscape.org/) -->

<svg
   width="1024"
   height="1024"
   viewBox="0 0 270.93333 270.93334"
   version="1.1"
   id="svg457"
   sodipodi:docname="Logo.svg"
   inkscape:version="1.1 (c68e22c387, 2021-05-23)"
   inkscape:export-filename="C:\Users\Msi\Desktop\Logo.png"
   inkscape:export-xdpi="96"
   inkscape:export-ydpi="96"
   xmlns:inkscape="http://www.inkscape.org/namespaces/inkscape"
   xmlns:sodipodi="http://sodipodi.sourceforge.net/DTD/sodipodi-0.dtd"
   xmlns="http://www.w3.org/2000/svg"
   xmlns:svg="http://www.w3.org/2000/svg">
  <sodipodi:namedview
     id="namedview459"
     pagecolor="#ffffff"
     bordercolor="#666666"
     borderopacity="1.0"
     inkscape:pageshadow="2"
     inkscape:pageopacity="0"
     inkscape:pagecheckerboard="true"
     inkscape:document-units="px"
     showgrid="false"
     units="px"
     inkscape:showpageshadow="false"
     inkscape:zoom="0.57452426"
     inkscape:cx="137.50507"
     inkscape:cy="449.93748"
     inkscape:window-width="1920"
     inkscape:window-height="1017"
     inkscape:window-x="-8"
     inkscape:window-y="-8"
     inkscape:window-maximized="1"
     inkscape:current-layer="layer4"
     showborder="false" />
  <defs
     id="defs454">
    <inkscape:path-effect
       effect="bspline"
       id="path-effect10245"
       is_visible="true"
       lpeversion="1"
       weight="33.333333"
       steps="2"
       helper_size="0"
       apply_no_weight="true"
       apply_with_weight="true"
       only_selected="false" />
    <inkscape:path-effect
       effect="bspline"
       id="path-effect10167"
       is_visible="true"
       lpeversion="1"
       weight="33.333333"
       steps="2"
       helper_size="0"
       apply_no_weight="true"
       apply_with_weight="true"
       only_selected="false" />
    <inkscape:path-effect
       effect="bspline"
       id="path-effect10157"
       is_visible="true"
       lpeversion="1"
       weight="33.333333"
       steps="2"
       helper_size="0"
       apply_no_weight="true"
       apply_with_weight="true"
       only_selected="false" />
    <inkscape:path-effect
       effect="bspline"
       id="path-effect10147"
       is_visible="true"
       lpeversion="1"
       weight="33.333333"
       steps="2"
       helper_size="0"
       apply_no_weight="true"
       apply_with_weight="true"
       only_selected="false" />
    <inkscape:path-effect
       effect="bspline"
       id="path-effect9971"
       is_visible="true"
       lpeversion="1"
       weight="33.333333"
       steps="2"
       helper_size="0"
       apply_no_weight="true"
       apply_with_weight="true"
       only_selected="false" />
    <inkscape:path-effect
       effect="bspline"
       id="path-effect9965"
       is_visible="true"
       lpeversion="1"
       weight="33.333333"
       steps="2"
       helper_size="0"
       apply_no_weight="true"
       apply_with_weight="true"
       only_selected="false" />
    <inkscape:path-effect
       effect="bspline"
       id="path-effect9864"
       is_visible="true"
       lpeversion="1"
       weight="33.333333"
       steps="2"
       helper_size="0"
       apply_no_weight="true"
       apply_with_weight="true"
       only_selected="false" />
    <inkscape:path-effect
       effect="bspline"
       id="path-effect8854"
       is_visible="true"
       lpeversion="1"
       weight="33.333333"
       steps="2"
       helper_size="0"
       apply_no_weight="true"
       apply_with_weight="true"
       only_selected="false" />
    <inkscape:path-effect
       effect="bspline"
       id="path-effect8809"
       is_visible="true"
       lpeversion="1"
       weight="33.333333"
       steps="2"
       helper_size="0"
       apply_no_weight="true"
       apply_with_weight="true"
       only_selected="false" />
    <inkscape:path-effect
       effect="bspline"
       id="path-effect8577"
       is_visible="true"
       lpeversion="1"
       weight="33.333333"
       steps="2"
       helper_size="0"
       apply_no_weight="true"
       apply_with_weight="true"
       only_selected="false" />
    <inkscape:path-effect
       effect="bspline"
       id="path-effect8491"
       is_visible="true"
       lpeversion="1"
       weight="33.333333"
       steps="2"
       helper_size="0"
       apply_no_weight="true"
       apply_with_weight="true"
       only_selected="false" />
    <inkscape:path-effect
       effect="bspline"
       id="path-effect8431"
       is_visible="true"
       lpeversion="1"
       weight="33.333333"
       steps="2"
       helper_size="0"
       apply_no_weight="true"
       apply_with_weight="true"
       only_selected="false" />
    <inkscape:path-effect
       effect="bspline"
       id="path-effect4955"
       is_visible="true"
       lpeversion="1"
       weight="33.333333"
       steps="2"
       helper_size="0"
       apply_no_weight="true"
       apply_with_weight="true"
       only_selected="false" />
    <inkscape:path-effect
       effect="bspline"
       id="path-effect4927"
       is_visible="true"
       lpeversion="1"
       weight="33.333333"
       steps="2"
       helper_size="0"
       apply_no_weight="true"
       apply_with_weight="true"
       only_selected="false" />
    <inkscape:path-effect
       effect="bspline"
       id="path-effect3378"
       is_visible="true"
       lpeversion="1"
       weight="33.333333"
       steps="2"
       helper_size="0"
       apply_no_weight="true"
       apply_with_weight="true"
       only_selected="false" />
    <inkscape:path-effect
       effect="bspline"
       id="path-effect2062"
       is_visible="true"
       lpeversion="1"
       weight="33.333333"
       steps="2"
       helper_size="0"
       apply_no_weight="true"
       apply_with_weight="true"
       only_selected="false" />
    <inkscape:path-effect
       effect="bspline"
       id="path-effect2058"
       is_visible="true"
       lpeversion="1"
       weight="33.333333"
       steps="2"
       helper_size="0"
       apply_no_weight="true"
       apply_with_weight="true"
       only_selected="false" />
    <inkscape:path-effect
       effect="bspline"
       id="path-effect67"
       is_visible="true"
       lpeversion="1"
       weight="33.333333"
       steps="2"
       helper_size="0"
       apply_no_weight="true"
       apply_with_weight="true"
       only_selected="false" />
    <inkscape:path-effect
       effect="bspline"
       id="path-effect63"
       is_visible="true"
       lpeversion="1"
       weight="33.333333"
       steps="2"
       helper_size="0"
       apply_no_weight="true"
       apply_with_weight="true"
       only_selected="false" />
    <inkscape:path-effect
       effect="bspline"
       id="path-effect59"
       is_visible="true"
       lpeversion="1"
       weight="33.333333"
       steps="2"
       helper_size="0"
       apply_no_weight="true"
       apply_with_weight="true"
       only_selected="false" />
    <inkscape:path-effect
       effect="bspline"
       id="path-effect55"
       is_visible="true"
       lpeversion="1"
       weight="33.333333"
       steps="2"
       helper_size="0"
       apply_no_weight="true"
       apply_with_weight="true"
       only_selected="false" />
    <inkscape:path-effect
       effect="bspline"
       id="path-effect51"
       is_visible="true"
       lpeversion="1"
       weight="33.333333"
       steps="2"
       helper_size="0"
       apply_no_weight="true"
       apply_with_weight="true"
       only_selected="false" />
    <inkscape:path-effect
       effect="bspline"
       id="path-effect47"
       is_visible="true"
       lpeversion="1"
       weight="33.333333"
       steps="2"
       helper_size="0"
       apply_no_weight="true"
       apply_with_weight="true"
       only_selected="false" />
    <clipPath
       clipPathUnits="userSpaceOnUse"
       id="clipPath1890">
      <path
         style="fill:#ea9725;fill-opacity:0.429719;stroke:#000000;stroke-width:0;stroke-linecap:butt;stroke-linejoin:miter;stroke-miterlimit:4;stroke-dasharray:none;stroke-opacity:1"
         d="m 270.93336,270.93336 h -62.77563 l -54.98881,-100.73019 19.35915,-20.57843 98.43403,67.38467 z"
         id="path1892"
         sodipodi:nodetypes="cccccc" />
    </clipPath>
    <clipPath
       clipPathUnits="userSpaceOnUse"
       id="clipPath1894">
      <path
         style="fill:#ea9725;fill-opacity:0.429719;stroke:#000000;stroke-width:0;stroke-linecap:butt;stroke-linejoin:miter;stroke-miterlimit:4;stroke-dasharray:none;stroke-opacity:1"
         d="m 270.93336,270.93336 h -62.77563 l -54.98881,-100.73019 19.35915,-20.57843 98.43403,67.38467 z"
         id="path1896"
         sodipodi:nodetypes="cccccc" />
    </clipPath>
    <clipPath
       clipPathUnits="userSpaceOnUse"
       id="clipPath1898">
      <path
         style="fill:#ea9725;fill-opacity:0.429719;stroke:#000000;stroke-width:0;stroke-linecap:butt;stroke-linejoin:miter;stroke-miterlimit:4;stroke-dasharray:none;stroke-opacity:1"
         d="m 270.93336,270.93336 h -62.77563 l -54.98881,-100.73019 19.35915,-20.57843 98.43403,67.38467 z"
         id="path1900"
         sodipodi:nodetypes="cccccc" />
    </clipPath>
    <clipPath
       clipPathUnits="userSpaceOnUse"
       id="clipPath1902">
      <path
         style="fill:#ea9725;fill-opacity:0.429719;stroke:#000000;stroke-width:0;stroke-linecap:butt;stroke-linejoin:miter;stroke-miterlimit:4;stroke-dasharray:none;stroke-opacity:1"
         d="m 270.93336,270.93336 h -62.77563 l -54.98881,-100.73019 19.35915,-20.57843 98.43403,67.38467 z"
         id="path1904"
         sodipodi:nodetypes="cccccc" />
    </clipPath>
    <clipPath
       clipPathUnits="userSpaceOnUse"
       id="clipPath1906">
      <path
         style="fill:#ea9725;fill-opacity:0.429719;stroke:#000000;stroke-width:0;stroke-linecap:butt;stroke-linejoin:miter;stroke-miterlimit:4;stroke-dasharray:none;stroke-opacity:1"
         d="m 270.93336,270.93336 h -62.77563 l -54.98881,-100.73019 19.35915,-20.57843 98.43403,67.38467 z"
         id="path1908"
         sodipodi:nodetypes="cccccc" />
    </clipPath>
    <clipPath
       clipPathUnits="userSpaceOnUse"
       id="clipPath3975">
      <path
         style="fill:#ea9725;fill-opacity:1;stroke:#000000;stroke-width:0;stroke-linecap:butt;stroke-linejoin:miter;stroke-miterlimit:4;stroke-dasharray:none;stroke-opacity:1"
         d="m 270.93336,270.93336 h -62.77562 l -54.98881,-100.73018 19.35915,-20.57843 98.43402,67.38467 z"
         id="path3977"
         sodipodi:nodetypes="cccccc" />
    </clipPath>
    <clipPath
       clipPathUnits="userSpaceOnUse"
       id="clipPath8433">
      <path
         style="fill:#f0b626;fill-opacity:1;stroke:#000000;stroke-width:0;stroke-linecap:butt;stroke-linejoin:miter;stroke-miterlimit:4;stroke-dasharray:none;stroke-opacity:1"
         d="m 164.29549,201.49433 c 10.92997,1.71814 21.85955,3.43622 25.67247,-1.34323 3.81291,-4.77945 0.50963,-16.0563 -1.95795,-24.4877 -2.46758,-8.4314 -4.11338,-14.06503 -8.06089,-21.26927 -3.94751,-7.20423 -10.20363,-16.00262 -15.72502,-23.58313 -5.5214,-7.58052 -10.30776,-13.94272 -14.11491,-22.77327 -3.80715,-8.83055 -6.6347,-20.12887 -14.30532,-26.925069 -7.67062,-6.796198 -20.18407,-9.089655 -31.04581,-6.451333 -10.861746,2.638322 -20.070814,10.208311 -26.008825,19.384624 -5.938011,9.176308 -8.604557,19.958098 -5.467916,27.945398 3.13664,7.98729 12.076276,13.17994 21.82899,24.07438 9.752711,10.89444 20.318351,27.48992 31.985031,37.67827 11.66667,10.18835 24.4335,13.96937 37.20015,17.75033 0,0 0,0 0,0 0,0 0,0 0,0"
         id="path8435"
         sodipodi:nodetypes="ccccccccccccccc"
         inkscape:original-d="m 164.29549,201.49433 c 10.92993,1.71839 21.85951,3.43646 32.78869,5.15423 -3.30305,-11.27699 -6.60634,-22.55383 -9.91005,-33.83119 -2.02348,-5.47092 -3.27724,-11.21908 -4.91642,-16.8291 -6.256,-8.79844 -12.51212,-17.59683 -18.76874,-26.39571 -4.78617,-6.36215 -9.57253,-12.72436 -14.35937,-19.08699 -2.82728,-11.298461 -5.65484,-22.596778 -8.48281,-33.895635 -12.51358,-2.293239 -25.02703,-4.5867 -37.54112,-6.88051 -9.20905,7.570597 -18.418122,15.140582 -27.627741,22.710407 -2.666278,10.782538 -5.332942,21.564298 -7.999804,32.346038 8.939786,5.19285 17.879422,10.3855 26.81859,15.57777 10.566425,16.59646 21.132055,33.19194 31.697525,49.78741 12.76772,3.78148 25.53455,7.5625 38.30125,11.34328 0,0 2.6e-4,2.6e-4 0,0 0,0 2.6e-4,2.6e-4 0,0"
         inkscape:path-effect="#path-effect8431" />
    </clipPath>
    <clipPath
       clipPathUnits="userSpaceOnUse"
       id="clipPath8811">
      <path
         style="fill:#f0b626;fill-opacity:1;stroke:#000000;stroke-width:0;stroke-linecap:butt;stroke-linejoin:miter;stroke-miterlimit:4;stroke-dasharray:none;stroke-opacity:1"
         d="m 164.29549,201.49433 c 10.92997,1.71814 21.85955,3.43622 25.67247,-1.34323 3.81291,-4.77945 0.50963,-16.0563 -1.95795,-24.4877 -2.46758,-8.4314 -4.11338,-14.06503 -8.06089,-21.26927 -3.94751,-7.20423 -10.20363,-16.00262 -15.72502,-23.58313 -5.5214,-7.58052 -10.30776,-13.94272 -14.11491,-22.77327 -3.80715,-8.83055 -6.6347,-20.12887 -14.30532,-26.925069 -7.67062,-6.796198 -20.18407,-9.089655 -31.04581,-6.451333 -10.861746,2.638322 -20.070814,10.208311 -26.008825,19.384624 -5.938011,9.176308 -8.604557,19.958098 -5.467916,27.945398 3.13664,7.98729 12.076276,13.17994 21.82899,24.07438 9.752711,10.89444 20.318351,27.48992 31.985031,37.67827 11.66667,10.18835 24.4335,13.96937 37.20015,17.75033 0,0 0,0 0,0 0,0 0,0 0,0"
         id="path8813"
         sodipodi:nodetypes="ccccccccccccccc"
         inkscape:original-d="m 164.29549,201.49433 c 10.92993,1.71839 21.85951,3.43646 32.78869,5.15423 -3.30305,-11.27699 -6.60634,-22.55383 -9.91005,-33.83119 -2.02348,-5.47092 -3.27724,-11.21908 -4.91642,-16.8291 -6.256,-8.79844 -12.51212,-17.59683 -18.76874,-26.39571 -4.78617,-6.36215 -9.57253,-12.72436 -14.35937,-19.08699 -2.82728,-11.298461 -5.65484,-22.596778 -8.48281,-33.895635 -12.51358,-2.293239 -25.02703,-4.5867 -37.54112,-6.88051 -9.20905,7.570597 -18.418122,15.140582 -27.627741,22.710407 -2.666278,10.782538 -5.332942,21.564298 -7.999804,32.346038 8.939786,5.19285 17.879422,10.3855 26.81859,15.57777 10.566425,16.59646 21.132055,33.19194 31.697525,49.78741 12.76772,3.78148 25.53455,7.5625 38.30125,11.34328 0,0 2.6e-4,2.6e-4 0,0 0,0 2.6e-4,2.6e-4 0,0"
         inkscape:path-effect="#path-effect8809" />
    </clipPath>
    <clipPath
       clipPathUnits="userSpaceOnUse"
       id="clipPath8815">
      <path
         style="fill:#f0b626;fill-opacity:1;stroke:#000000;stroke-width:0;stroke-linecap:butt;stroke-linejoin:miter;stroke-miterlimit:4;stroke-dasharray:none;stroke-opacity:1"
         d="m 164.29549,201.49433 c 10.92997,1.71814 21.85955,3.43622 25.67247,-1.34323 3.81291,-4.77945 0.50963,-16.0563 -1.95795,-24.4877 -2.46758,-8.4314 -4.11338,-14.06503 -8.06089,-21.26927 -3.94751,-7.20423 -10.20363,-16.00262 -15.72502,-23.58313 -5.5214,-7.58052 -10.30776,-13.94272 -14.11491,-22.77327 -3.80715,-8.83055 -6.6347,-20.12887 -14.30532,-26.925069 -7.67062,-6.796198 -20.18407,-9.089655 -31.04581,-6.451333 -10.861746,2.638322 -20.070814,10.208311 -26.008825,19.384624 -5.938011,9.176308 -8.604557,19.958098 -5.467916,27.945398 3.13664,7.98729 12.076276,13.17994 21.82899,24.07438 9.752711,10.89444 20.318351,27.48992 31.985031,37.67827 11.66667,10.18835 24.4335,13.96937 37.20015,17.75033 0,0 0,0 0,0 0,0 0,0 0,0"
         id="path8817"
         sodipodi:nodetypes="ccccccccccccccc"
         inkscape:original-d="m 164.29549,201.49433 c 10.92993,1.71839 21.85951,3.43646 32.78869,5.15423 -3.30305,-11.27699 -6.60634,-22.55383 -9.91005,-33.83119 -2.02348,-5.47092 -3.27724,-11.21908 -4.91642,-16.8291 -6.256,-8.79844 -12.51212,-17.59683 -18.76874,-26.39571 -4.78617,-6.36215 -9.57253,-12.72436 -14.35937,-19.08699 -2.82728,-11.298461 -5.65484,-22.596778 -8.48281,-33.895635 -12.51358,-2.293239 -25.02703,-4.5867 -37.54112,-6.88051 -9.20905,7.570597 -18.418122,15.140582 -27.627741,22.710407 -2.666278,10.782538 -5.332942,21.564298 -7.999804,32.346038 8.939786,5.19285 17.879422,10.3855 26.81859,15.57777 10.566425,16.59646 21.132055,33.19194 31.697525,49.78741 12.76772,3.78148 25.53455,7.5625 38.30125,11.34328 0,0 2.6e-4,2.6e-4 0,0 0,0 2.6e-4,2.6e-4 0,0"
         inkscape:path-effect="#path-effect8809" />
    </clipPath>
    <mask
       maskUnits="userSpaceOnUse"
       id="mask10149">
      <path
         style="fill:#f0b626;fill-opacity:1;stroke:#000000;stroke-width:0;stroke-linecap:butt;stroke-linejoin:miter;stroke-miterlimit:4;stroke-dasharray:none;stroke-opacity:1"
         d="M 65.164707,108.6076 C 52.653734,97.47825 32.544102,78.443177 36.382121,75.449836 c 3.838018,-2.993342 31.622527,10.054632 47.510601,23.103078 15.888073,13.048446 19.879218,26.096426 18.497678,30.701576 -1.38154,4.60515 -8.135775,0.76752 -13.969157,-2.7632 -5.833382,-3.53072 -10.745563,-6.75434 -23.256536,-17.88369 z"
         id="path10151"
         inkscape:path-effect="#path-effect10147"
         inkscape:original-d="M 72.7631,116.51307 C 52.653729,97.478255 32.544097,78.443183 12.4342,59.407849 c 27.785885,13.04876 55.570395,26.096732 83.355196,39.144705 3.991565,13.048756 7.982704,26.096736 11.973674,39.144706 -6.75426,-3.83753 -13.508493,-7.67517 -20.263141,-11.51315 -4.912109,-3.22348 -9.824289,-6.4471 -14.736829,-9.67104 z" />
    </mask>
    <mask
       maskUnits="userSpaceOnUse"
       id="mask10159">
      <path
         style="fill:#f0b626;fill-opacity:1;stroke:#000000;stroke-width:0;stroke-linecap:butt;stroke-linejoin:miter;stroke-miterlimit:4;stroke-dasharray:none;stroke-opacity:1"
         d="M 90.893863,76.805492 C 84.081392,64.752773 70.45627,40.64702 75.004672,38.914244 c 4.548403,-1.732776 27.269338,18.906688 38.619398,36.049305 11.35005,17.142617 11.32901,30.787341 8.65471,34.782861 -2.6743,3.99552 -8.00191,-1.65815 -12.53957,-6.74774 -4.53765,-5.089592 -8.2851,-9.614842 -10.15897,-11.877651 C 97.706366,88.85821 97.706334,88.85821 90.893863,76.805492 Z"
         id="path10161"
         inkscape:path-effect="#path-effect10157"
         inkscape:original-d="M 97.706334,88.85821 C 84.081382,64.752779 70.456261,40.647025 56.830966,16.540942 c 22.722022,20.640621 45.442964,41.280084 68.164184,61.919632 -0.0209,13.645592 -0.0419,27.290316 -0.0631,40.934986 C 119.6044,113.742 114.2768,108.08833 108.94891,102.43422 105.2015,97.909124 101.45406,93.383873 97.706366,88.85821 Z" />
    </mask>
  </defs>
  <g
     inkscape:label="Katman 1"
     inkscape:groupmode="layer"
     id="layer1"
     sodipodi:insensitive="true">
    <rect
       style="fill:#ffffff;stroke-width:0.68072"
       id="rect505"
       width="270.93335"
       height="270.93335"
       x="0"
       y="0" />
  </g>
  <g
     inkscape:groupmode="layer"
     id="layer2"
     inkscape:label="circle"
     sodipodi:insensitive="true">
    <circle
       style="fill:#8ed1d6;fill-opacity:1;stroke-width:0.276726"
       id="path104"
       cx="-135.46667"
       cy="135.46667"
       transform="scale(-1,1)"
       r="108.37334" />
  </g>
  <g
     inkscape:groupmode="layer"
     id="layer3"
     inkscape:label="neck"
     sodipodi:insensitive="true">
    <path
       style="fill:#ea9725;fill-opacity:1;stroke:#000000;stroke-width:0;stroke-linecap:butt;stroke-linejoin:miter;stroke-miterlimit:4;stroke-dasharray:none;stroke-opacity:1"
       d="m 270.93335,270.93335 -62.77562,10e-6 -54.98881,-100.73019 19.35915,-20.57843 98.43402,67.38467 z"
       id="path1104"
       sodipodi:nodetypes="cccccc" />
    <path
       style="fill:#f2c427;fill-opacity:0.7;stroke:#000000;stroke-width:0;stroke-linecap:butt;stroke-linejoin:miter;stroke-miterlimit:4;stroke-dasharray:none;stroke-opacity:1"
       d="m 238.69654,270.93336 h -30.53881 l -54.98881,-100.73019 6.67502,-6.67502 z"
       id="path5818"
       sodipodi:nodetypes="ccccc" />
    <path
       style="fill:#41340b;fill-opacity:0.85098;stroke:#000000;stroke-width:0;stroke-linecap:butt;stroke-linejoin:miter;stroke-miterlimit:4;stroke-dasharray:none;stroke-opacity:1"
       d="m 239.70393,191.11843 c 1.76546,-1.53523 6.0637,-1.22821 9.1338,1.84217 3.0701,3.07038 4.91217,8.90359 2.83975,13.12492 -2.07241,4.22132 -8.05913,6.83092 -12.6644,4.98894 -4.60527,-1.84198 -7.82889,-8.13571 -7.52176,-10.82222 0.30713,-2.68651 4.14477,-1.76548 5.67972,-2.99347 1.53496,-1.22798 0.76743,-4.60511 2.53289,-6.14034 z"
       id="path45"
       inkscape:path-effect="#path-effect47"
       inkscape:original-d="m 237.17086,189.27616 c 4.29851,0.30729 8.59675,0.6143 12.89473,0.92106 1.8424,5.83371 3.68447,11.66692 5.52631,17.49998 -5.98669,2.60997 -11.97341,5.21956 -17.96051,7.82894 -3.22348,-6.29371 -6.4471,-12.58744 -9.67104,-18.88156 3.83805,0.92134 7.67569,1.84237 11.51314,2.76316 -0.76729,-3.377 -1.53482,-6.75412 -2.30263,-10.13158 z"
       clip-path="url(#clipPath1906)" />
    <path
       style="fill:#41340b;fill-opacity:0.85098;stroke:#41340b;stroke-width:0;stroke-linecap:butt;stroke-linejoin:miter;stroke-miterlimit:4;stroke-dasharray:none;stroke-opacity:0.85098"
       d="m 261.272,240.93189 c 2.30259,-1.45842 11.2061,-2.37947 14.89015,-0.15345 3.68404,2.22603 2.14899,7.59873 2.60963,12.97166 0.46065,5.37292 2.91674,10.74563 0.92113,10.74553 -1.99561,-1e-4 -8.44285,-5.3728 -11.20616,-9.28733 -2.76331,-3.91454 -1.84228,-6.37063 -3.53073,-8.59653 -1.68846,-2.22589 -5.98661,-4.22146 -3.68402,-5.67988 z"
       id="path49"
       inkscape:original-d="m 254.67085,240.39455 c 8.90377,-0.92079 17.80728,-1.84184 26.71051,-2.76316 -1.53485,5.37317 -3.06991,10.74587 -4.60526,16.11841 2.45644,5.37317 4.91254,10.74587 7.3684,16.1184 -6.44723,-5.37264 -12.89446,-10.74534 -19.34207,-16.1184 0.92133,-2.45592 1.84235,-4.91201 2.76315,-7.36842 -4.29807,-1.99539 -8.59622,-3.99096 -12.89473,-5.98683 z"
       inkscape:path-effect="#path-effect51"
       clip-path="url(#clipPath1902)" />
    <path
       style="fill:#41340b;fill-opacity:0.85098;stroke:#000000;stroke-width:0;stroke-linecap:butt;stroke-linejoin:miter;stroke-miterlimit:4;stroke-dasharray:none;stroke-opacity:1"
       d="m 195.3399,221.43636 c -2.37951,-3.30029 -2.84003,-9.90116 0.4606,-13.12498 3.30064,-3.22381 10.36189,-3.07031 14.12273,0.0768 3.76084,3.14713 4.22135,9.28735 7.75226,13.04822 3.53091,3.76086 10.13165,5.14241 11.28278,7.75206 1.15113,2.60965 -3.14703,6.44728 -8.36624,7.90563 -5.21922,1.45836 -11.35945,0.53732 -13.8925,-1.91879 -2.53306,-2.45611 -1.45852,-6.44726 -3.07024,-8.44296 -1.61173,-1.9957 -5.90988,-1.9957 -8.28939,-5.296 z"
       id="path53"
       inkscape:path-effect="#path-effect55"
       inkscape:original-d="m 193.4209,224.73666 c -0.46026,-6.60061 -0.92079,-13.20148 -1.38158,-19.80261 7.06181,0.15377 14.12306,0.30728 21.18419,0.46052 0.4608,6.14074 0.92132,12.28096 1.38158,18.42104 6.60127,1.38187 13.20201,2.76342 19.80262,4.14474 -4.29807,3.83805 -8.59622,7.67569 -12.89473,11.51314 -6.1402,-0.9208 -12.28043,-1.84184 -18.42104,-2.76315 1.07485,-3.99104 2.14939,-7.98219 3.22368,-11.97368 -4.29806,2.7e-4 -8.59621,2.7e-4 -12.89472,0 z" />
    <path
       style="fill:#41340b;fill-opacity:0.85098;stroke:#000000;stroke-width:0;stroke-linecap:butt;stroke-linejoin:miter;stroke-miterlimit:4;stroke-dasharray:none;stroke-opacity:1"
       d="m 182.48359,168.36079 c -1.6887,-1.68846 -2.45625,-4.60513 -1.07466,-7.59874 1.38159,-2.99362 4.91222,-6.06373 8.44302,-4.29815 3.53081,1.76559 7.06144,8.36632 8.13587,13.04826 1.07444,4.68194 -0.30711,7.44504 -2.99346,9.5941 -2.68634,2.14905 -6.67748,3.68411 -7.82888,2.22583 -1.1514,-1.45827 0.53716,-5.90994 0.0768,-8.36613 -0.46037,-2.45618 -3.06997,-2.9167 -4.75868,-4.60517 z"
       id="path57"
       inkscape:original-d="m 181.56235,169.58868 c -0.76728,-2.9164 -1.53482,-5.83307 -2.30263,-8.74999 3.53104,-3.06998 7.06167,-6.14009 10.5921,-9.21052 3.53103,6.60127 7.06166,13.202 10.5921,19.80261 -1.38134,2.76348 -2.7629,5.52658 -4.14474,8.28947 -3.99104,1.53538 -7.98218,3.07044 -11.97367,4.60526 1.68889,-4.45157 3.37745,-8.90324 5.06578,-13.35525 -2.60943,-0.46027 -5.21903,-0.92079 -7.82894,-1.38158 z"
       inkscape:path-effect="#path-effect59"
       clip-path="url(#clipPath1898)" />
    <path
       style="fill:#41340b;fill-opacity:0.85098;stroke:#000000;stroke-width:0;stroke-linecap:butt;stroke-linejoin:miter;stroke-miterlimit:4;stroke-dasharray:none;stroke-opacity:1"
       d="m 172.39044,192.80709 c 1.07465,-1.07465 4.60536,0.46044 6.4473,4.29828 1.84195,3.83785 1.99546,9.97807 0.23015,13.58537 -1.7653,3.60731 -5.44943,4.68185 -8.13586,3.45392 -2.68643,-1.22792 -4.37499,-4.75855 -3.6842,-7.29164 0.6908,-2.53309 3.76091,-4.06815 4.6052,-6.67765 0.84429,-2.6095 -0.53725,-6.29363 0.53741,-7.36828 z"
       id="path61"
       inkscape:original-d="m 169.93408,190.19722 c 3.53096,1.53535 7.06166,3.07044 10.59209,4.60526 0.15378,6.14073 0.30728,12.28095 0.46053,18.42103 -3.68402,1.07485 -7.36815,2.14939 -11.05262,3.22369 -1.68837,-3.53051 -3.37693,-7.06114 -5.06579,-10.5921 3.0705,-1.53485 6.14061,-3.06991 9.21052,-4.60526 -1.38134,-3.68402 -2.76289,-7.36815 -4.14473,-11.05262 z"
       inkscape:path-effect="#path-effect63"
       clip-path="url(#clipPath1894)" />
    <path
       style="fill:#41340b;fill-opacity:0.85098;stroke:#000000;stroke-width:0;stroke-linecap:butt;stroke-linejoin:miter;stroke-miterlimit:4;stroke-dasharray:none;stroke-opacity:1"
       d="m 230.18629,255.3616 c 3.30048,-1.91887 7.90574,-4.068 12.51112,-2.83972 4.60538,1.22827 9.21055,5.83344 8.82674,7.75218 -0.38381,1.91874 -5.75651,1.15122 -6.52401,1.91885 -0.76749,0.76764 3.07014,3.07022 4.83532,5.91019 1.76519,2.83996 1.45817,6.2171 -1.07473,9.59419 -2.53291,3.37708 -7.29157,6.7542 -10.59198,6.52407 -3.3004,-0.23013 -5.14246,-4.06775 -5.83334,-8.21257 -0.69087,-4.14482 -0.23036,-8.59649 -1.6118,-11.20622 -1.38145,-2.60974 -4.60506,-3.37726 -5.21922,-4.6054 -0.61415,-1.22813 1.38142,-2.91669 4.6819,-4.83557 z"
       id="path65"
       inkscape:original-d="m 228.8814,255.5919 c 4.60552,-2.14885 9.21078,-4.29798 13.81577,-6.44736 4.60562,4.60561 9.21079,9.21078 13.81578,13.81578 -5.37264,-0.7673 -10.74534,-1.53482 -16.1184,-2.30263 3.83805,2.30294 7.67569,4.60551 11.51314,6.90789 -0.30675,3.37751 -0.61377,6.75465 -0.92105,10.13156 -4.7586,3.37754 -9.51727,6.75465 -14.2763,10.13158 -1.84188,-3.83754 -3.68395,-7.67516 -5.52631,-11.51316 0.4608,-4.45156 0.92131,-8.90323 1.38157,-13.35524 -3.22348,-0.7673 -6.4471,-1.53482 -9.67104,-2.30263 1.99592,-1.68837 3.99149,-3.37693 5.98684,-5.06579 z"
       inkscape:path-effect="#path-effect67"
       clip-path="url(#clipPath1890)" />
    <path
       style="fill:#000000;fill-opacity:0.39759;stroke:#000000;stroke-width:0;stroke-linecap:butt;stroke-linejoin:miter;stroke-miterlimit:4;stroke-dasharray:none;stroke-opacity:1"
       d="m 172.92663,215.50055 c 10.92997,1.71814 21.85955,3.43622 25.67247,-1.34323 3.81291,-4.77945 0.50963,-16.0563 -1.95795,-24.4877 -2.46758,-8.4314 -4.11338,-14.06503 -8.06089,-21.26927 -3.94751,-7.20423 -10.20363,-16.00262 -15.72502,-23.58313 -5.5214,-7.58052 -10.30776,-13.94272 -14.11491,-22.77327 -3.80715,-8.83055 -6.6347,-20.12887 -14.30532,-26.925065 -7.67062,-6.796194 -20.18407,-9.089651 -31.04581,-6.451331 -10.86174,2.638319 -20.070815,10.208307 -26.008825,19.384616 -5.93801,9.17631 -8.604557,19.95811 -5.467775,27.94548 3.136783,7.98737 12.076137,13.17986 21.82885,24.0743 9.75271,10.89445 20.31835,27.48992 31.98502,37.67827 11.66668,10.18835 24.43351,13.96937 37.20016,17.75033 0,0 0,0 0,0 0,0 0,0 0,0"
       id="path2060-5"
       inkscape:original-d="m 172.92663,215.50055 c 10.92993,1.71839 21.85951,3.43646 32.78869,5.15423 -3.30305,-11.27699 -6.60634,-22.55383 -9.91005,-33.83119 -2.02348,-5.47092 -3.27724,-11.21908 -4.91642,-16.8291 -6.256,-8.79844 -12.51212,-17.59683 -18.76874,-26.39571 -4.78617,-6.36215 -9.57253,-12.72436 -14.35937,-19.08699 -2.82728,-11.29846 -5.65484,-22.59678 -8.48281,-33.895627 -12.51358,-2.29324 -25.02703,-4.5867 -37.54112,-6.88051 -9.20905,7.57059 -18.418119,15.14058 -27.62774,22.710397 -2.666278,10.78254 -5.332829,21.56433 -7.999804,32.34604 8.940077,5.193 17.879425,10.3855 26.818584,15.57777 10.56643,16.59646 21.13206,33.19194 31.69753,49.78741 12.76772,3.78148 25.53455,7.5625 38.30125,11.34328 0,0 3.7e-4,3e-4 0,0 0,0 3.7e-4,3e-4 0,0"
       inkscape:path-effect="#path-effect3378"
       clip-path="url(#clipPath3975)" />
  </g>
  <g
     inkscape:groupmode="layer"
     id="layer4"
     inkscape:label="head"
     sodipodi:insensitive="true">
    <path
       style="fill:none;stroke:#000000;stroke-width:0.264583px;stroke-linecap:butt;stroke-linejoin:miter;stroke-opacity:1"
       d="m 153.16892,170.20317 c 0,0 0,0 0,0 0,0 0,0 0,0 z"
       id="path2056"
       inkscape:path-effect="#path-effect2058"
       inkscape:original-d="m 153.16892,170.20317 c 2.6e-4,2.6e-4 2.6e-4,2.6e-4 0,0 0,0 2.6e-4,2.6e-4 0,0 z" />
    <path
       style="fill:#ea9725;fill-opacity:1;stroke:#000000;stroke-width:0;stroke-linecap:butt;stroke-linejoin:miter;stroke-miterlimit:4;stroke-dasharray:none;stroke-opacity:1"
       d="m 141.95086,89.805323 c 3.48452,-4.741415 7.62599,-10.681109 8.02823,-16.485815 0.40224,-5.804706 -2.93477,-11.473873 -6.42056,-12.406389 -3.48579,-0.932515 -7.11991,2.871298 -9.62771,8.239158 -2.5078,5.36786 -3.88934,12.299452 -4.72315,16.994664 -0.8338,4.695213 -1.11986,7.153819 -0.42795,9.361955 0.69192,2.208135 2.36181,4.165933 4.61049,3.373415 2.24868,-0.792517 5.07614,-4.335572 8.56065,-9.076988 z"
       id="path4925-1"
       inkscape:path-effect="#path-effect4955"
       inkscape:original-d="m 141.29408,91.00335 c 4.14114,-5.939551 8.2826,-11.879253 12.42443,-17.819105 -3.33749,-5.669259 -6.67451,-11.338424 -10.01126,-17.007864 -3.63462,3.804118 -7.26873,7.607941 -10.90259,11.411682 -1.38194,6.932013 -2.76348,13.863605 -4.1447,20.795181 -0.28642,2.458872 -0.57248,4.917478 -0.8582,7.376002 1.66961,1.958016 3.33951,3.915806 5.00976,5.873494 2.82723,-3.543061 5.6547,-7.086107 8.48256,-10.62939 z" />
    <path
       style="fill:#ea9725;fill-opacity:1;stroke:#000000;stroke-width:0;stroke-linecap:butt;stroke-linejoin:miter;stroke-miterlimit:4;stroke-dasharray:none;stroke-opacity:1"
       d="m 77.939561,125.07825 c -5.70778,-1.42971 -12.773382,-3.01375 -18.298177,-1.18809 -5.524795,1.82566 -9.508275,7.06083 -9.051461,10.64016 0.456814,3.57934 5.353457,5.50255 11.271203,5.79107 5.917747,0.28853 12.856333,-1.05745 17.51766,-2.06356 4.661328,-1.00612 7.045194,-1.67231 8.826914,-3.14882 1.781719,-1.47651 2.961425,-3.76338 1.376459,-5.54454 -1.584965,-1.78116 -5.934819,-3.0565 -11.642598,-4.48622 z"
       id="path4925"
       inkscape:path-effect="#path-effect4927"
       inkscape:original-d="m 79.297077,125.2325 c -7.065339,-1.58377 -14.130942,-3.1678 -21.196815,-4.7521 -3.983375,5.23565 -7.966857,10.47082 -11.95069,15.70584 4.897108,1.92356 9.793755,3.84676 14.690233,5.76975 6.939128,-1.34576 13.877713,-2.69174 20.816171,-4.03801 2.384225,-0.66596 4.768092,-1.33215 7.151737,-1.99862 1.180022,-2.2867 2.359732,-4.57356 3.539196,-6.86074 -4.349764,-1.27514 -8.69962,-2.55048 -13.049832,-3.82612 z" />
    <path
       style="fill:#000000;fill-opacity:1;stroke:#000000;stroke-width:0;stroke-linecap:butt;stroke-linejoin:miter;stroke-miterlimit:4;stroke-dasharray:none;stroke-opacity:1"
       d="m 77.269897,127.42931 c -3.883736,-0.97282 -8.691376,-2.05064 -12.450604,-0.80841 -3.759228,1.24223 -6.469703,4.80439 -6.158874,7.23987 0.31083,2.43548 3.642647,3.74408 7.66925,3.94041 4.026604,0.19632 8.747817,-0.71952 11.919519,-1.40411 3.171701,-0.68459 4.793754,-1.13789 6.006086,-2.14255 1.212333,-1.00466 2.015036,-2.5607 0.936581,-3.77266 -1.078455,-1.21195 -4.038222,-2.07974 -7.921958,-3.05255 z"
       id="path10163"
       inkscape:path-effect="#path-effect10167"
       inkscape:original-d="m 78.19359,127.53426 c -4.807459,-1.07764 -9.615099,-2.15546 -14.422922,-3.23346 -2.710403,3.56248 -5.420878,7.12464 -8.131593,10.6867 3.332133,1.30885 6.663953,2.61745 9.995657,3.9259 4.721582,-0.91569 9.442795,-1.83153 14.163921,-2.74757 1.622295,-0.45314 3.244347,-0.90644 4.866247,-1.35992 0.802921,-1.55594 1.60563,-3.11198 2.408171,-4.66825 -2.959704,-0.86764 -5.919472,-1.73542 -8.879481,-2.6034 z" />
    <path
       style="fill:#000000;fill-opacity:1;stroke:#000000;stroke-width:0;stroke-linecap:butt;stroke-linejoin:miter;stroke-miterlimit:4;stroke-dasharray:none;stroke-opacity:1"
       d="m 141.24814,87.508184 c 2.59388,-3.529525 5.67681,-7.951054 5.97624,-12.272098 0.29943,-4.321045 -2.18465,-8.541194 -4.77949,-9.235361 -2.59484,-0.694167 -5.30009,2.137403 -7.1669,6.133258 -1.86681,3.995854 -2.89524,9.155755 -3.51593,12.650889 -0.62069,3.495133 -0.83364,5.325329 -0.31857,6.969074 0.51507,1.643745 1.75814,3.101136 3.43207,2.511182 1.67393,-0.589955 3.7787,-3.227419 6.37258,-6.756944 z"
       id="path10241"
       inkscape:path-effect="#path-effect10245"
       inkscape:original-d="m 140.75922,88.400001 c 3.08268,-4.421424 6.1656,-8.842959 9.2488,-13.264607 -2.48444,-4.220216 -4.96853,-8.440363 -7.45242,-12.660715 -2.70563,2.831799 -5.41087,5.663379 -8.11593,8.494897 -1.02872,5.160216 -2.05714,10.320118 -3.08533,15.480008 -0.21321,1.830393 -0.42616,3.660589 -0.63885,5.490723 1.24287,1.457554 2.48595,2.91494 3.72929,4.37225 2.1046,-2.637468 4.20938,-5.274924 6.31444,-7.912556 z" />
    <path
       style="fill:#f0b626;fill-opacity:1;stroke:#000000;stroke-width:0;stroke-linecap:butt;stroke-linejoin:miter;stroke-miterlimit:4;stroke-dasharray:none;stroke-opacity:1"
       d="m 164.29549,201.49433 c 10.92997,1.71814 21.85955,3.43622 25.67247,-1.34323 3.81291,-4.77945 0.50963,-16.0563 -1.95795,-24.4877 -2.46758,-8.4314 -4.11338,-14.06503 -8.06089,-21.26927 -3.94751,-7.20423 -10.20363,-16.00262 -15.72502,-23.58313 -5.5214,-7.58052 -10.30776,-13.94272 -14.11491,-22.77327 -3.80715,-8.83055 -6.6347,-20.128871 -14.30532,-26.925069 -7.67062,-6.796198 -20.18407,-9.089655 -31.04581,-6.451333 -10.861745,2.638321 -20.070814,10.208311 -26.008825,19.384624 -5.938011,9.176308 -8.604557,19.958098 -5.467916,27.945398 3.13664,7.98729 12.076276,13.17994 21.82899,24.07438 9.752711,10.89445 20.318351,27.48992 31.985031,37.67827 11.66667,10.18835 24.4335,13.96937 37.20015,17.75033 0,0 0,0 0,0 0,0 0,0 0,0"
       id="path2060"
       sodipodi:nodetypes="ccccccccccccccc"
       inkscape:original-d="m 164.29549,201.49433 c 10.92993,1.71839 21.85951,3.43646 32.78869,5.15423 -3.30305,-11.27699 -6.60634,-22.55383 -9.91005,-33.83119 -2.02348,-5.47092 -3.27724,-11.21908 -4.91642,-16.8291 -6.256,-8.79844 -12.51212,-17.59683 -18.76874,-26.39571 -4.78617,-6.36215 -9.57253,-12.72436 -14.35937,-19.08699 -2.82728,-11.298461 -5.65484,-22.596779 -8.48281,-33.895634 -12.51358,-2.293241 -25.02703,-4.586701 -37.54112,-6.880512 -9.209049,7.570598 -18.418121,15.140584 -27.627741,22.710409 -2.666278,10.782537 -5.332941,21.564297 -7.999804,32.346037 8.939786,5.19285 17.879423,10.3855 26.818589,15.57777 10.566426,16.59646 21.132056,33.19194 31.697526,49.78741 12.76772,3.78148 25.53455,7.5625 38.30125,11.34328 0,0 3.7e-4,3e-4 0,0 0,0 3.7e-4,3e-4 0,0"
       inkscape:path-effect="#path-effect2062" />
    <path
       style="fill:#ea9725;fill-opacity:1;stroke:#000000;stroke-width:0;stroke-linecap:butt;stroke-linejoin:miter;stroke-miterlimit:4;stroke-dasharray:none;stroke-opacity:1"
       d="m 117.43412,180.06565 47.43417,-1.38158 5.06579,-48.81575 33.61839,53.88153 -8.21257,37.68651 -47.9716,-10.51547 -21.18419,-18.88157 z"
       id="path6214"
       clip-path="url(#clipPath8433)"
       sodipodi:nodetypes="cccccccc" />
    <ellipse
       style="fill:#000000;fill-opacity:1;stroke:#41340b;stroke-width:0;stroke-miterlimit:4;stroke-dasharray:none;stroke-opacity:0.85098"
       id="path4808"
       cx="-82.760796"
       cy="230.86299"
       rx="3.626642"
       ry="4.7203913"
       transform="rotate(-60.54353)" />
    <ellipse
       style="fill:#000000;fill-opacity:1;stroke:#41340b;stroke-width:0;stroke-miterlimit:4;stroke-dasharray:none;stroke-opacity:0.85098"
       id="ellipse4890"
       cx="-67.737007"
       cy="236.39377"
       rx="3.626642"
       ry="4.7203913"
       transform="rotate(-60.54353)" />
    <path
       style="fill:#000000;fill-opacity:1;stroke:#000000;stroke-width:0;stroke-linecap:butt;stroke-linejoin:miter;stroke-miterlimit:4;stroke-dasharray:none;stroke-opacity:1"
       d="m 85.197471,150.43866 c -2.45628,-1.38148 -2.609788,-2.91656 -0.767664,-5.75665 1.842124,-2.84009 5.679762,-6.98474 9.287388,-7.44512 3.607627,-0.46037 6.984755,2.76325 7.521855,6.21714 0.5371,3.45389 -1.765488,7.13802 -5.296058,8.36609 -3.530569,1.22806 -8.28924,1e-5 -10.745521,-1.38146 z"
       id="path8489"
       inkscape:original-d="m 82.894671,150.59198 c -0.153244,-1.53482 -0.306752,-3.0699 -0.460526,-4.60525 3.838057,-4.14456 7.675698,-8.28921 11.51315,-12.43421 3.37752,3.22401 6.754645,6.44763 10.131575,9.67105 -2.30241,3.68455 -4.604995,7.36868 -6.907895,11.05262 -4.7586,-1.22783 -9.517272,-2.45587 -14.276304,-3.68421 z"
       inkscape:path-effect="#path-effect8491"
       clip-path="url(#clipPath8815)" />
    <path
       style="fill:#000000;fill-opacity:1;stroke:#000000;stroke-width:0;stroke-linecap:butt;stroke-linejoin:miter;stroke-miterlimit:4;stroke-dasharray:none;stroke-opacity:1"
       d="m 154.8929,97.428359 c 2.58042,1.132769 2.88441,2.645251 1.33104,5.653011 -1.55337,3.00775 -4.96403,7.51031 -8.50875,8.32385 -3.54472,0.81353 -7.22299,-2.06171 -8.09774,-5.44588 -0.87475,-3.38417 1.05369,-7.277221 4.4461,-8.847122 3.39241,-1.569901 8.24892,-0.816629 10.82935,0.316141 z"
       id="path8573"
       inkscape:path-effect="#path-effect8577"
       inkscape:original-d="m 157.16939,97.048925 c 0.3037,1.51225 0.60769,3.024735 0.91197,4.537465 -3.41108,4.50251 -6.82174,9.00507 -10.23218,13.50795 -3.67871,-2.87559 -7.35698,-5.75083 -11.03503,-8.62589 1.92822,-3.89345 3.85666,-7.786495 5.78543,-11.679385 4.85641,0.75306 9.71292,1.50633 14.56981,2.25986 z"
       clip-path="url(#clipPath8811)" />
    <path
       style="fill:#f0b626;fill-opacity:1;stroke:#000000;stroke-width:0;stroke-linecap:butt;stroke-linejoin:miter;stroke-miterlimit:4;stroke-dasharray:none;stroke-opacity:1"
       d="M 65.164708,108.6076 C 52.653735,97.47825 32.544104,78.443178 36.382122,75.449836 c 3.838018,-2.993342 31.622527,10.054632 47.5106,23.103079 15.888074,13.048445 19.879218,26.096425 18.497678,30.701575 -1.38154,4.60515 -8.135776,0.76752 -13.969157,-2.7632 -5.833382,-3.53072 -10.745563,-6.75434 -23.256535,-17.88369 z"
       id="path8852"
       inkscape:path-effect="#path-effect8854"
       inkscape:original-d="M 72.7631,116.51307 C 52.65373,97.478256 32.544098,78.443184 12.4342,59.407848 c 27.785886,13.04876 55.570396,26.096734 83.355196,39.144706 3.991566,13.048756 7.982704,26.096736 11.973674,39.144706 -6.75426,-3.83753 -13.508494,-7.67517 -20.263141,-11.51315 -4.912109,-3.22348 -9.824289,-6.4471 -14.736829,-9.67104 z" />
    <path
       style="fill:#f0b626;fill-opacity:1;stroke:#000000;stroke-width:0;stroke-linecap:butt;stroke-linejoin:miter;stroke-miterlimit:4;stroke-dasharray:none;stroke-opacity:1"
       d="M 90.893864,76.805492 C 84.081392,64.752774 70.456271,40.647021 75.004673,38.914244 c 4.548401,-1.732776 27.269347,18.906688 38.619397,36.049305 11.35005,17.142617 11.32901,30.787341 8.65471,34.782861 -2.6743,3.99552 -8.00191,-1.65815 -12.53957,-6.74774 -4.53765,-5.089593 -8.2851,-9.614842 -10.158971,-11.877651 C 97.706365,88.85821 97.706335,88.85821 90.893864,76.805492 Z"
       id="path9860"
       inkscape:path-effect="#path-effect9864"
       inkscape:original-d="M 97.706335,88.85821 C 84.081383,64.752779 70.456262,40.647026 56.830965,16.540942 c 22.722024,20.64062 45.442965,41.280084 68.164185,61.919631 -0.0209,13.645593 -0.0419,27.290317 -0.0631,40.934987 C 119.6044,113.742 114.2768,108.08833 108.94891,102.43422 105.2015,97.909123 101.45406,93.383872 97.706365,88.85821 Z" />
    <path
       style="fill:#000000;fill-opacity:1;stroke:#000000;stroke-width:0;stroke-linecap:butt;stroke-linejoin:miter;stroke-miterlimit:4;stroke-dasharray:none;stroke-opacity:1"
       d="M 31.930045,91.030626 C 38.377363,90.570062 45.899288,89.034975 48.048319,82.434165 50.19735,75.833354 46.973733,64.166928 41.677596,60.866367 36.38146,57.565806 29.01319,62.631491 24.177592,68.925524 c -4.835599,6.294033 -7.138183,13.815807 -5.602872,17.883725 1.535311,4.067918 6.908007,4.68194 13.355325,4.221377 z"
       id="path9963"
       inkscape:path-effect="#path-effect9965"
       inkscape:original-d="M 30.85524,92.10519 C 38.377426,90.570369 45.89935,89.03528 53.421009,87.49993 50.197527,75.833305 46.97391,64.166879 43.749965,52.499958 36.381668,57.566109 29.013398,62.631793 21.64472,67.697315 c -2.302411,7.522339 -4.604995,15.044113 -6.90789,22.565772 5.373175,0.61431 10.74587,1.228334 16.11841,1.842103 z"
       mask="url(#mask10149)" />
    <path
       style="fill:#000000;fill-opacity:1;stroke:#000000;stroke-width:0;stroke-linecap:butt;stroke-linejoin:miter;stroke-miterlimit:4;stroke-dasharray:none;stroke-opacity:1"
       d="m 75.680011,54.188549 c 6.447318,-0.460564 13.969243,-1.995651 16.118274,-8.596461 2.149031,-6.600811 -1.074586,-18.267237 -6.370723,-21.567798 -5.296136,-3.300561 -12.664406,1.765124 -17.500004,8.059157 -4.835599,6.294033 -7.138183,13.815807 -5.602872,17.883725 1.535311,4.067918 6.908007,4.68194 13.355325,4.221377 z"
       id="path9967"
       inkscape:path-effect="#path-effect9971"
       inkscape:original-d="m 74.605206,55.263113 c 7.522186,-1.534821 15.04411,-3.06991 22.565769,-4.60526 -3.223482,-11.666625 -6.447099,-23.333051 -9.671044,-34.999972 -7.368297,5.066151 -14.736567,10.131835 -22.105245,15.197357 -2.302411,7.522339 -4.604995,15.044113 -6.90789,22.565772 5.373175,0.61431 10.74587,1.228334 16.11841,1.842103 z"
       mask="url(#mask10159)" />
  </g>
</svg>
